# xmcd
#
# Track frame offsets:
# 150
# 13673
# 25260
# 43320
# 55863
# 69623
# 88870
# 102255
# 124393
# 140488
# 150118
# 164278
# 175660
# 192105
# 203965
# 217383
# 229663
# 246440
#
# Disc length: 3551 seconds
#
#
# Revision: 2
# Processed by: cddbd v1.5.1PL0 Copyright (c) Steve Scherf et al.
# Submitted via: FreeRIP 2.90 
#
DISCID=040ddd12
DTITLE=Sergio Rafael Orchestra - Midnight
DYEAR=1900
DGENRE=Orchestral Love Songs
TTITLE0=A swinging safari
TTITLE1=This guy's in love with you
TTITLE2=Up where we belong
TTITLE3=Johnny guitar
TTITLE4=Love is a many spendoured thing
TTITLE5=Say you, say me
TTITLE6=That happy feeling
TTITLE7=Nikita
TTITLE8=To all the girls I've loved before
TTITLE9=Wheels
TTITLE10=Gentle on my mind
TTITLE11=Come softly to me
TTITLE12=Do that to me one more time
TTITLE13=Let your love flow
TTITLE14=Sealed with a kiss
TTITLE15=Sunny
TTITLE16=The world we knew
TTITLE17=I just can't stop loving you
EXTD=Orchestral Love Songs
EXTT0=
EXTT1=
EXTT2=
EXTT3=
EXTT4=
EXTT5=
EXTT6=
EXTT7=
EXTT8=
EXTT9=
EXTT10=
EXTT11=
EXTT12=
EXTT13=
EXTT14=
EXTT15=
EXTT16=
EXTT17=
PLAYORDER=
